<?xml version="1.0" standalone="no"?>
<!DOCTYPE svg PUBLIC "-//W3C//DTD SVG 20010904//EN"
 "http://www.w3.org/TR/2001/REC-SVG-20010904/DTD/svg10.dtd">
<svg version="1.0" xmlns="http://www.w3.org/2000/svg"
 width="1024.000000pt" height="1024.000000pt" viewBox="0 0 1024.000000 1024.000000"
 preserveAspectRatio="xMidYMid meet">

<g transform="translate(0.000000,1024.000000) scale(0.100000,-0.100000)"
fill="#000000" stroke="none">
<path d="M3710 8650 c-272 -42 -493 -266 -557 -564 -33 -156 7 -400 95 -578
l48 -97 -63 -71 c-159 -179 -293 -362 -408 -560 -82 -141 -174 -325 -203 -405
-20 -57 -82 -269 -82 -281 0 -3 20 20 44 53 52 68 207 220 324 316 l83 68 -45
-90 c-25 -49 -66 -125 -92 -168 -138 -233 -253 -514 -300 -733 -25 -118 -26
-417 -1 -543 109 -545 495 -989 1049 -1203 97 -38 289 -96 295 -90 2 2 -20 18
-49 36 -177 109 -435 343 -556 504 -204 271 -309 536 -326 826 -4 77 -3 88 5
60 6 -19 22 -71 36 -115 55 -177 156 -339 308 -491 117 -117 161 -151 517
-391 146 -100 310 -214 365 -255 242 -184 454 -405 605 -628 l50 -75 164 -41
164 -42 0 40 c0 109 -50 260 -133 398 -175 294 -443 593 -689 769 -27 19 -46
36 -44 38 2 2 73 -19 157 -47 270 -89 535 -235 727 -400 89 -76 228 -238 282
-326 63 -104 110 -274 110 -399 0 -38 4 -65 10 -65 6 0 43 16 83 36 348 176
549 348 664 569 45 88 87 213 98 290 11 85 9 82 88 95 238 37 344 72 463 152
89 59 155 137 201 235 37 80 75 214 93 327 12 73 13 73 102 171 124 137 180
236 234 418 73 245 49 507 -67 741 -59 119 -223 337 -411 548 l-69 77 31 62
c113 223 70 351 -205 617 l-135 130 44 84 c54 102 75 170 83 268 13 176 -58
345 -170 401 -48 25 -154 29 -239 9 -132 -31 -286 -147 -363 -274 -22 -36 -42
-65 -45 -63 -116 57 -411 145 -611 181 -239 44 -530 57 -798 36 -123 -10 -124
-9 -139 13 -8 12 -60 67 -116 122 -227 226 -488 338 -706 305z m182 -271 c83
-18 186 -70 273 -139 120 -95 242 -205 314 -282 74 -80 122 -107 199 -115 l55
-6 -6 34 c-3 19 -8 41 -12 50 -5 13 2 20 27 27 112 36 307 42 544 17 448 -47
725 -142 1084 -371 190 -121 279 -187 378 -279 106 -99 172 -186 172 -227 0
-70 -37 -88 -181 -88 -64 0 -99 -4 -99 -11 0 -6 35 -49 78 -97 232 -259 484
-582 596 -764 l65 -107 -34 -27 c-21 -16 -57 -30 -97 -36 -56 -10 -80 -8 -208
17 -126 24 -156 27 -235 19 -204 -18 -266 -4 -314 69 -29 44 -37 37 -47 -40
-8 -70 11 -147 49 -189 42 -48 98 -79 199 -108 110 -32 139 -47 176 -92 89
-108 59 -327 -55 -405 -112 -77 -394 -182 -578 -215 -78 -14 -157 -18 -360
-18 -240 -1 -266 1 -345 22 -213 57 -340 168 -400 346 l-21 63 -127 6 c-460
22 -724 167 -878 482 -177 365 -123 803 154 1240 24 39 54 80 65 93 48 52 -6
15 -104 -72 -220 -195 -413 -471 -482 -691 -59 -189 -77 -449 -43 -630 45
-233 173 -459 349 -613 150 -131 313 -229 477 -287 152 -54 256 -106 346 -173
99 -73 209 -190 252 -266 32 -58 32 -58 8 -52 -13 3 -95 17 -182 31 -266 43
-421 88 -615 178 -356 166 -685 483 -826 797 l-34 75 5 -145 c9 -261 99 -554
230 -749 20 -30 35 -56 32 -58 -10 -11 -227 221 -279 298 -296 444 -361 1095
-162 1601 133 335 349 627 645 869 118 97 339 259 353 259 15 0 -1 46 -40 112
-75 129 -322 354 -416 379 -135 36 -243 -40 -277 -196 -13 -59 -14 -270 -1
-337 4 -27 6 -48 2 -48 -8 0 -83 114 -108 165 -65 130 -59 343 14 477 51 94
139 175 223 204 44 16 133 17 202 3z m3535 -2676 c14 -101 8 -164 -21 -253
-43 -129 -111 -253 -173 -311 l-53 -50 -41 32 c-22 18 -52 49 -66 70 -28 42
-27 72 4 213 18 80 51 121 188 235 44 36 94 78 110 93 17 16 33 28 37 28 4 0
10 -26 15 -57z m-522 -752 c34 -15 73 -43 88 -60 25 -31 27 -37 21 -104 -8
-103 -21 -153 -56 -220 -35 -65 -68 -97 -137 -131 -111 -56 -348 -116 -457
-116 -189 0 -441 87 -535 187 -38 39 -114 152 -107 159 2 2 87 28 189 58 101
30 249 75 329 101 262 85 514 154 560 155 29 0 66 -10 105 -29z"/>
<path d="M5299 7786 c-42 -8 -93 -22 -113 -31 -55 -26 -108 -93 -135 -171 -14
-38 -26 -75 -29 -81 -8 -25 21 -12 71 31 67 57 152 110 219 138 46 19 72 22
193 22 123 1 153 -2 245 -27 144 -39 232 -88 293 -162 26 -33 47 -62 47 -66 0
-4 -15 -3 -32 2 -18 5 -94 20 -169 34 -146 27 -266 32 -318 14 -30 -10 -41
-32 -22 -43 4 -3 87 -21 182 -40 213 -42 292 -62 340 -86 20 -11 90 -62 155
-115 66 -52 122 -95 126 -95 12 0 9 27 -13 130 -11 52 -26 137 -34 187 -9 62
-23 110 -42 145 -26 50 -33 55 -113 90 -110 47 -254 94 -355 114 -109 22 -396
27 -496 10z"/>
<path d="M4816 7268 c-60 -56 -139 -141 -176 -189 -159 -206 -273 -524 -273
-759 0 -113 17 -179 70 -270 96 -164 258 -267 486 -310 151 -28 256 -23 281
15 9 13 55 62 102 108 l86 84 -103 0 c-89 -1 -114 3 -173 26 -143 56 -295 187
-355 306 -71 140 -78 266 -23 436 24 74 46 118 83 169 l51 69 107 -7 c157 -10
157 -9 202 -82 55 -87 152 -175 243 -220 72 -35 78 -36 158 -32 46 3 109 13
141 23 l57 19 57 -40 c62 -42 169 -160 233 -256 l40 -60 0 40 c0 54 -26 193
-52 272 -56 176 -177 344 -288 400 -85 43 -154 57 -385 80 -250 24 -251 24
-342 62 -88 36 -133 82 -133 134 0 19 5 44 11 56 6 11 9 21 7 24 -3 2 -53 -42
-112 -98z m698 -388 c65 -20 136 -70 136 -94 0 -7 -11 -18 -25 -24 -66 -30
-149 2 -190 73 -41 69 -27 77 79 45z"/>
<path d="M4988 6608 c-1 -24 -3 -61 -4 -83 -4 -96 51 -233 116 -286 48 -40
130 -69 200 -71 52 -1 66 3 131 42 81 47 221 141 217 145 -2 2 -50 -6 -108
-17 -132 -24 -217 -20 -293 15 -84 38 -148 103 -198 203 -24 47 -47 88 -51 90
-5 3 -9 -14 -10 -38z"/>
<path d="M5515 5694 c-36 -18 -70 -49 -97 -86 l-19 -28 416 0 c306 0 414 3
409 11 -20 32 -184 86 -334 109 -106 16 -339 13 -375 -6z"/>
<path d="M5366 5351 c-9 -16 -18 -47 -22 -70 l-7 -41 167 0 c191 0 307 11 491
46 141 27 246 56 285 79 22 13 -29 14 -437 15 l-462 0 -15 -29z"/>
<path d="M3688 2644 c-138 -33 -212 -120 -212 -249 0 -149 65 -208 309 -283
107 -33 145 -60 145 -103 -1 -81 -130 -107 -246 -49 -33 16 -71 41 -84 55
l-23 24 -64 -81 c-35 -45 -62 -87 -60 -92 5 -16 102 -72 167 -98 77 -31 269
-33 348 -3 113 42 172 121 180 243 6 87 -12 143 -61 190 -39 38 -152 91 -269
127 -62 18 -93 33 -108 52 -26 33 -25 39 5 68 21 22 33 25 98 25 74 0 114 -13
187 -62 l26 -17 48 80 c55 92 55 92 -37 137 -108 52 -230 65 -349 36z"/>
<path d="M4514 2646 c-175 -42 -263 -213 -188 -364 38 -77 103 -115 307 -177
110 -34 143 -70 121 -130 -19 -50 -145 -61 -233 -20 -29 14 -67 37 -83 50 -17
14 -34 25 -38 23 -5 -2 -36 -38 -69 -80 l-60 -77 31 -26 c150 -127 455 -142
586 -29 69 58 87 103 87 211 0 86 -2 94 -30 135 -41 58 -108 96 -261 148 -133
45 -167 67 -162 102 6 39 50 61 119 60 51 -1 77 -8 133 -36 39 -19 73 -33 77
-30 4 2 26 36 48 75 48 82 47 85 -34 124 -109 54 -237 69 -351 41z"/>
<path d="M1740 2200 l0 -450 105 0 105 0 0 121 0 120 37 45 c21 24 40 44 43
44 3 0 16 -17 29 -38 13 -20 67 -94 118 -164 l95 -128 129 0 c71 0 129 2 129
5 0 7 -217 308 -293 407 -38 50 -56 82 -51 90 12 21 304 367 315 373 29 18 -3
25 -119 25 l-128 0 -152 -192 -152 -191 0 191 0 192 -105 0 -105 0 0 -450z"/>
<path d="M2660 2200 l0 -450 315 0 315 0 0 95 0 95 -210 0 -210 0 0 90 0 90
180 0 180 0 0 95 0 95 -180 0 -180 0 0 75 0 75 210 0 210 0 0 95 0 95 -315 0
-315 0 0 -450z"/>
<path d="M5160 2200 l0 -450 310 0 310 0 0 95 0 95 -205 0 -205 0 0 355 0 355
-105 0 -105 0 0 -450z"/>
<path d="M5970 2200 l0 -450 315 0 315 0 0 95 0 95 -212 0 -213 0 2 87 2 88
180 3 181 2 0 95 0 95 -180 0 -180 0 0 75 0 75 210 0 210 0 0 95 0 95 -315 0
-315 0 0 -450z"/>
<path d="M6810 2201 l0 -451 105 0 105 0 0 145 0 145 63 0 62 0 83 -145 84
-145 124 0 124 0 -24 38 c-13 20 -60 93 -105 162 -71 108 -79 126 -65 135 88
54 105 70 130 122 25 50 27 66 27 157 -2 117 -11 147 -61 199 -63 65 -125 78
-409 84 l-243 6 0 -452z m464 240 c23 -21 26 -33 26 -88 0 -54 -4 -68 -23 -87
-21 -21 -37 -25 -130 -31 -58 -4 -110 -4 -116 -1 -7 5 -11 50 -11 122 l0 116
114 -4 c105 -3 117 -5 140 -27z"/>
<path d="M7732 2317 l3 -332 33 -67 c38 -77 83 -119 162 -150 47 -19 74 -22
180 -22 107 0 134 4 184 24 78 30 145 97 177 176 23 57 24 68 27 382 l3 322
-105 0 -105 0 -3 -297 c-3 -275 -5 -301 -23 -337 -30 -60 -64 -80 -143 -84
-57 -3 -72 0 -102 20 -19 13 -45 43 -57 68 -22 43 -23 53 -23 337 l0 293 -106
0 -105 0 3 -333z"/>
</g>
</svg>
